HIERARCHY
ROOT Hips
{
    OFFSET   0.000000   0.000000   0.000000
    CHANNELS 6 Xposition Yposition Zposition Zrotation Xrotation Yrotation
    JOINT Chest
    {
        OFFSET   0.000000   8.007240   0.000000
        CHANNELS 3 Zrotation Xrotation Yrotation
        JOINT Chest2
        {
            OFFSET   0.000000  22.077100   0.000000
            CHANNELS 3 Zrotation Xrotation Yrotation
            JOINT Neck
            {
                OFFSET   0.000000  23.254800   0.000000
                CHANNELS 3 Zrotation Xrotation Yrotation
                JOINT Head
                {
                    OFFSET   0.000000  14.370000   1.956600
                    CHANNELS 3 Zrotation Xrotation Yrotation
                    End Site
                    {
                        OFFSET   0.000000  19.566000   0.000000
                    }
                }
            }
            JOINT LeftCollar
            {
                OFFSET   3.911900  19.017000  -0.467064
                CHANNELS 3 Zrotation Xrotation Yrotation
                JOINT LeftShoulder
                {
                    OFFSET  10.383700   0.000000   0.000000
                    CHANNELS 3 Zrotation Xrotation Yrotation
                    JOINT LeftElbow
                    {
                        OFFSET  26.662100   0.001476   0.000517
                        CHANNELS 3 Zrotation Xrotation Yrotation
                        JOINT LeftWrist
                        {
                            OFFSET  28.869000  -0.000025  -0.000106
                            CHANNELS 3 Zrotation Xrotation Yrotation
                            JOINT LeftFinger0
                            {
                                OFFSET   2.044660  -2.323460   3.252850
                                CHANNELS 3 Zrotation Xrotation Yrotation
                                JOINT LeftFinger01
                                {
                                    OFFSET   3.088130   0.000000   0.000000
                                    CHANNELS 3 Zrotation Xrotation Yrotation
                                    JOINT LeftFinger02
                                    {
                                        OFFSET   2.639460   0.000000   0.000000
                                        CHANNELS 3 Zrotation Xrotation Yrotation
                                        End Site
                                        {
                                            OFFSET   2.582190   0.000000   0.000000
                                        }
                                    }
                                }
                            }
                            JOINT LeftFinger1
                            {
                                OFFSET   8.364480   0.000000   3.252850
                                CHANNELS 3 Zrotation Xrotation Yrotation
                                JOINT LeftFinger11
                                {
                                    OFFSET   4.646930   0.000000   0.000000
                                    CHANNELS 3 Zrotation Xrotation Yrotation
                                    JOINT LeftFinger12
                                    {
                                        OFFSET   2.323460   0.000000   0.000000
                                        CHANNELS 3 Zrotation Xrotation Yrotation
                                        End Site
                                        {
                                            OFFSET   2.273050   0.000000   0.000000
                                        }
                                    }
                                }
                            }
                            JOINT LeftFinger2
                            {
                                OFFSET   8.364490   0.000015   1.078090
                                CHANNELS 3 Zrotation Xrotation Yrotation
                                JOINT LeftFinger21
                                {
                                    OFFSET   5.111620   0.000000   0.000000
                                    CHANNELS 3 Zrotation Xrotation Yrotation
                                    JOINT LeftFinger22
                                    {
                                        OFFSET   2.788160   0.000016   0.000000
                                        CHANNELS 3 Zrotation Xrotation Yrotation
                                        End Site
                                        {
                                            OFFSET   2.727660   0.000000   0.000000
                                        }
                                    }
                                }
                            }
                            JOINT LeftFinger3
                            {
                                OFFSET   7.899780   0.000017  -1.078090
                                CHANNELS 3 Zrotation Xrotation Yrotation
                                JOINT LeftFinger31
                                {
                                    OFFSET   4.646930   0.000000   0.000000
                                    CHANNELS 3 Zrotation Xrotation Yrotation
                                    JOINT LeftFinger32
                                    {
                                        OFFSET   2.323470   0.000000   0.000000
                                        CHANNELS 3 Zrotation Xrotation Yrotation
                                        End Site
                                        {
                                            OFFSET   2.273050   0.000000   0.000000
                                        }
                                    }
                                }
                            }
                            JOINT LeftFinger4
                            {
                                OFFSET   7.435090   0.000000  -3.252850
                                CHANNELS 3 Zrotation Xrotation Yrotation
                                JOINT LeftFinger41
                                {
                                    OFFSET   3.717550   0.000000   0.000000
                                    CHANNELS 3 Zrotation Xrotation Yrotation
                                    JOINT LeftFinger42
                                    {
                                        OFFSET   1.858770   0.000000   0.000000
                                        CHANNELS 3 Zrotation Xrotation Yrotation
                                        End Site
                                        {
                                            OFFSET   1.818440   0.000000   0.000000
                                        }
                                    }
                                }
                            }
                        }
                    }
                }
            }
            JOINT RightCollar
            {
                OFFSET  -3.911900  19.017000  -0.467063
                CHANNELS 3 Zrotation Xrotation Yrotation
                JOINT RightShoulder
                {
                    OFFSET -10.383700   0.000019   0.000000
                    CHANNELS 3 Zrotation Xrotation Yrotation
                    JOINT RightElbow
                    {
                        OFFSET -26.662100   0.001175   0.000102
                        CHANNELS 3 Zrotation Xrotation Yrotation
                        JOINT RightWrist
                        {
                            OFFSET -28.869000   0.000016  -0.000079
                            CHANNELS 3 Zrotation Xrotation Yrotation
                            JOINT RightFinger0
                            {
                                OFFSET  -2.044660  -2.323490   3.252850
                                CHANNELS 3 Zrotation Xrotation Yrotation
                                JOINT RightFinger01
                                {
                                    OFFSET  -3.088140   0.000000   0.000000
                                    CHANNELS 3 Zrotation Xrotation Yrotation
                                    JOINT RightFinger02
                                    {
                                        OFFSET  -2.639460   0.000000   0.000000
                                        CHANNELS 3 Zrotation Xrotation Yrotation
                                        End Site
                                        {
                                            OFFSET  -2.582190   0.000000   0.000000
                                        }
                                    }
                                }
                            }
                            JOINT RightFinger1
                            {
                                OFFSET  -8.364480   0.000000   3.252850
                                CHANNELS 3 Zrotation Xrotation Yrotation
                                JOINT RightFinger11
                                {
                                    OFFSET  -4.646930   0.000000   0.000000
                                    CHANNELS 3 Zrotation Xrotation Yrotation
                                    JOINT RightFinger12
                                    {
                                        OFFSET  -2.323470   0.000000   0.000000
                                        CHANNELS 3 Zrotation Xrotation Yrotation
                                        End Site
                                        {
                                            OFFSET  -2.273050   0.000000   0.000000
                                        }
                                    }
                                }
                            }
                            JOINT RightFinger2
                            {
                                OFFSET  -8.364480   0.000000   1.078090
                                CHANNELS 3 Zrotation Xrotation Yrotation
                                JOINT RightFinger21
                                {
                                    OFFSET  -5.111620   0.000000   0.000000
                                    CHANNELS 3 Zrotation Xrotation Yrotation
                                    JOINT RightFinger22
                                    {
                                        OFFSET  -2.788160   0.000000   0.000000
                                        CHANNELS 3 Zrotation Xrotation Yrotation
                                        End Site
                                        {
                                            OFFSET  -2.727660   0.000000   0.000000
                                        }
                                    }
                                }
                            }
                            JOINT RightFinger3
                            {
                                OFFSET  -7.899780   0.000000  -1.078090
                                CHANNELS 3 Zrotation Xrotation Yrotation
                                JOINT RightFinger31
                                {
                                    OFFSET  -4.646930   0.000000   0.000000
                                    CHANNELS 3 Zrotation Xrotation Yrotation
                                    JOINT RightFinger32
                                    {
                                        OFFSET  -2.323470   0.000000   0.000000
                                        CHANNELS 3 Zrotation Xrotation Yrotation
                                        End Site
                                        {
                                            OFFSET  -2.273050   0.000000   0.000000
                                        }
                                    }
                                }
                            }
                            JOINT RightFinger4
                            {
                                OFFSET  -7.435090   0.000000  -3.252850
                                CHANNELS 3 Zrotation Xrotation Yrotation
                                JOINT RightFinger41
                                {
                                    OFFSET  -3.717550   0.000000   0.000000
                                    CHANNELS 3 Zrotation Xrotation Yrotation
                                    JOINT RightFinger42
                                    {
                                        OFFSET  -1.858770   0.000000   0.000000
                                        CHANNELS 3 Zrotation Xrotation Yrotation
                                        End Site
                                        {
                                            OFFSET  -1.818440   0.000000   0.000000
                                        }
                                    }
                                }
                            }
                        }
                    }
                }
            }
        }
    }
    JOINT LeftHip
    {
        OFFSET   9.783040   0.000000   0.000000
        CHANNELS 3 Zrotation Xrotation Yrotation
        JOINT LeftKnee
        {
            OFFSET   0.000032 -41.789100  -0.002222
            CHANNELS 3 Zrotation Xrotation Yrotation
            JOINT LeftAnkle
            {
                OFFSET   0.000087 -41.133200  -0.000135
                CHANNELS 3 Zrotation Xrotation Yrotation
                JOINT LeftToe
                {
                    OFFSET   0.000000  -6.358960  14.674500
                    CHANNELS 3 Zrotation Xrotation Yrotation
                    End Site
                    {
                        OFFSET   0.000000   0.000000   3.913200
                    }
                }
            }
        }
    }
    JOINT RightHip
    {
        OFFSET  -9.783040   0.000000   0.000000
        CHANNELS 3 Zrotation Xrotation Yrotation
        JOINT RightKnee
        {
            OFFSET   0.000047 -41.789100  -0.000896
            CHANNELS 3 Zrotation Xrotation Yrotation
            JOINT RightAnkle
            {
                OFFSET  -0.000117 -41.133300  -0.000248
                CHANNELS 3 Zrotation Xrotation Yrotation
                JOINT RightToe
                {
                    OFFSET   0.000000  -6.358970  14.674500
                    CHANNELS 3 Zrotation Xrotation Yrotation
                    End Site
                    {
                        OFFSET   0.000000   0.000000   3.913200
                    }
                }
            }
        }
    }
}
MOTION
Frames: 4
Frame Time:   0.016667
 -1.082310  89.496000   0.598026  -2.078290  -2.496740   2.153290   1.599900   2.875900  -1.357880   3.273800   5.711860  -2.800980   0.524537  -0.745039   0.002906   0.863675  -1.510360   5.479600  -7.774020   3.353520   0.172222 -69.069500  14.378100  -6.255830  -2.672630  -7.770770 -11.066700   2.756630 -11.533100   9.547580  43.018400  29.793900 -65.802300 -20.702700  -0.002343   0.000180  -5.342780   0.005726   0.000929 -29.686800   6.061960 -10.494600 -24.756400  -0.007177   0.007191 -17.325200  -0.006702   0.005945 -27.733900   1.649950  -3.134390 -30.674300  -0.000911   0.001365 -20.429100  -0.000882  -0.005209 -27.469700  -0.842581   1.624740 -29.093400  -0.000383   0.001135 -19.374300  -0.000482   0.001294 -30.471500  -1.066310   1.811840 -45.719400  -0.001184   0.000867 -30.457800  -0.001137   0.000382   6.467610   0.680143  11.076200  71.049900   4.773010   2.274550  -0.666678  -5.798810  10.786100 -12.240600 -14.958000   7.396490 -45.106200  33.374000  66.115400  22.176300  -0.001751   0.000796   6.089540  -0.004297   0.001650  31.312200   6.758720  10.948500  26.149700   0.005320  -0.004843  18.304800   0.004015  -0.003779  28.129600   4.015060   7.463460  35.016500   0.009818   0.004221  23.321000   0.006211  -0.002064  28.214800   1.227710   2.287510  33.661100   0.002198   0.000000  22.418300   0.005575  -0.014698  28.806900  -1.121530  -2.038490  43.240200   0.008408  -0.000182  28.798000   0.005431  -0.004021   2.765580   6.662970   3.608490   1.253400   0.237406   9.937520  -2.802760  -3.288110   1.624350  -0.000000   0.000000   0.000000   2.016950   2.662260  -5.257890   1.581740   3.378480  -7.488570  -3.715650  -3.505380  -3.818760  -0.000000   0.000000   0.000000
 -1.082330  89.495900   0.601300  -2.078050  -2.496740   2.153300   1.599580   2.875810  -1.356680   3.273090   5.711720  -2.798550   0.524695  -0.740842   0.002907   0.863525  -1.501930   5.479380  -7.774160   3.353460   0.172140 -69.082800  14.390300  -6.250460  -2.673540  -7.786280 -11.051900   2.753850 -11.533200   9.533060  43.012000  29.787600 -65.814800 -20.697200  -0.002359   0.000179  -5.343070   0.005720   0.000944 -29.692700   6.068580 -10.503300 -24.756400  -0.007169   0.007191 -17.325300  -0.006682   0.005949 -27.733300   1.655030  -3.143820 -30.684300  -0.000894   0.001357 -20.435700  -0.000869  -0.005212 -27.469700  -0.842581   1.622600 -29.093400  -0.000366   0.001126 -19.374600  -0.000469   0.001283 -30.471500  -1.066740   1.812540 -45.724100  -0.001167   0.000862 -30.457800  -0.001126   0.000387   6.467590   0.679985  11.076300  71.060300   4.781340   2.287700  -0.664258  -5.820320  10.765900 -12.247800 -14.975200   7.397800 -45.101100  33.363700  66.114500  22.172700  -0.001711   0.000786   6.087140  -0.004292   0.001614  31.324300   6.763660  10.952000  26.160500   0.005319  -0.004845  18.312400   0.004009  -0.003776  28.128900   4.018450   7.468590  35.038300   0.009822   0.004201  23.335500   0.006210  -0.002063  28.214500   1.232010   2.295260  33.685800   0.002170   0.000000  22.434800   0.005569  -0.014694  28.812900  -1.117990  -2.031560  43.249200   0.008403  -0.000173  28.804000   0.005408  -0.004026   2.766170   6.671310   3.608630   1.253900   0.231792   9.939250  -2.802250  -3.284740   1.624500  -0.000000   0.000000  -0.000000   2.016780   2.663210  -5.258090   1.582440   3.376880  -7.486180  -3.715860  -3.505420  -3.823080  -0.000000   0.000000  -0.000000
 -1.082380  89.495600   0.606889  -2.077820  -2.496740   2.153340   1.598910   2.875650  -1.354650   3.271650   5.711480  -2.794450   0.524852  -0.733472   0.002915   0.863151  -1.487030   5.479150  -7.774370   3.353340   0.172059 -69.104900  14.402700  -6.240010  -2.675270  -7.808170 -11.034000   2.749020 -11.533600   9.508320  43.006700  29.779000 -65.829600 -20.689500  -0.002389   0.000176  -5.343360   0.005708   0.000988 -29.698500   6.075200 -10.512100 -24.756400  -0.007149   0.007190 -17.325500  -0.006630   0.005959 -27.732700   1.660110  -3.153250 -30.694300  -0.000852   0.001335 -20.442400  -0.000838  -0.005219 -27.469700  -0.842581   1.620470 -29.093400  -0.000323   0.001101 -19.376200  -0.000436   0.001252 -30.471300  -1.069770   1.817460 -45.732400  -0.001123   0.000848 -30.457800  -0.001100   0.000399   6.467520   0.679826  11.076400  71.078800   4.789650   2.308770  -0.659605  -5.858760  10.736800 -12.251200 -15.013300   7.404100 -45.092700  33.343700  66.100200  22.160300  -0.001620   0.000760   6.080140  -0.004287   0.001528  31.338400   6.771400  10.958700  26.172600   0.005309  -0.004848  18.320900   0.003991  -0.003771  28.127700   4.024060   7.477580  35.060100   0.009831   0.004153  23.350000   0.006210  -0.002058  28.213900   1.239180   2.308290  33.710500   0.002102  -0.000000  22.451300   0.005557  -0.014686  28.819200  -1.110120  -2.016760  43.258100   0.008384  -0.000152  28.809900   0.005359  -0.004041   2.767790   6.689070   3.608930   1.253650   0.217816   9.942480  -2.801120  -3.277570   1.624760   0.000000   0.000000  -0.000000   2.016660   2.666030  -5.258360   1.583560   3.375300  -7.481790  -3.716210  -3.505470  -3.829770  -0.000000   0.000000  -0.000000
 -1.082420  89.495100   0.611672  -2.077730  -2.500510   2.153390   1.598060   2.875500  -1.352590   3.269830   5.711250  -2.790290   0.524772  -0.726833   0.002976   0.862724  -1.473320   5.479600  -7.774500   3.353210   0.172083 -69.121000  14.398300  -6.227610  -2.683940  -7.813120 -11.031500   2.744460 -11.534400   9.485650  43.007600  29.775100 -65.830100 -20.687900  -0.002420   0.000151  -5.343280   0.005693   0.001067 -29.699700   6.069610 -10.501400 -24.756200  -0.007115   0.007188 -17.325600  -0.006545   0.005972 -27.733300   1.654550  -3.142460 -30.693400  -0.000787   0.001302 -20.441200  -0.000790  -0.005230 -27.469400  -0.848384   1.631580 -29.097200  -0.000254   0.001063 -19.380400  -0.000386   0.001203 -30.475000  -1.079120   1.832940 -45.740300  -0.001057   0.000825 -30.461900  -0.001060   0.000417   6.467200   0.680578  11.076100  71.094500   4.788670   2.323240  -0.656645  -5.892400  10.721000 -12.235900 -15.055700   7.421150 -45.093100  33.320700  66.067400  22.133900  -0.001487   0.000717   6.066880  -0.004287   0.001398  31.339600   6.777680  10.967900  26.174200   0.005274  -0.004841  18.322000   0.003956  -0.003767  28.126300   4.029550   7.487890  35.058800   0.009848   0.004080  23.349200   0.006210  -0.002052  28.213400   1.246360   2.321650  33.710300   0.001994  -0.000000  22.451200   0.005543  -0.014672  28.818700  -1.098830  -1.996250  43.256300   0.008347  -0.000122  28.808700   0.005292  -0.004069   2.770410   6.713800   3.609380   1.251110   0.189987   9.946420  -2.799190  -3.265760   1.625050  -0.000000   0.000000   0.000000   2.016820   2.670660  -5.258480   1.584480   3.377840  -7.476140  -3.716810  -3.505470  -3.834580  -0.000000   0.000000   0.000000
